<mxfile host="app.diagrams.net" agent="Mozilla/5.0 (Windows NT 10.0; Win64; x64) AppleWebKit/537.36 (KHTML, like Gecko) Chrome/140.0.0.0 Safari/537.36" version="28.1.2">
  <diagram name="Page-1" id="9EQ8fulB-MXw2rxPoNIj">
    <mxGraphModel dx="1042" dy="562" grid="1" gridSize="10" guides="1" tooltips="1" connect="1" arrows="1" fold="1" page="1" pageScale="1" pageWidth="827" pageHeight="1169" math="0" shadow="0">
      <root>
        <mxCell id="0" />
        <mxCell id="1" parent="0" />
        <mxCell id="ha9AG-WfzSjR4dk0X2PM-3" style="edgeStyle=orthogonalEdgeStyle;rounded=0;orthogonalLoop=1;jettySize=auto;html=1;" parent="1" source="ha9AG-WfzSjR4dk0X2PM-1" target="ha9AG-WfzSjR4dk0X2PM-2" edge="1">
          <mxGeometry relative="1" as="geometry" />
        </mxCell>
        <mxCell id="ha9AG-WfzSjR4dk0X2PM-23" value="localhost:8080" style="edgeLabel;html=1;align=center;verticalAlign=middle;resizable=0;points=[];" parent="ha9AG-WfzSjR4dk0X2PM-3" vertex="1" connectable="0">
          <mxGeometry x="-0.2862" y="3" relative="1" as="geometry">
            <mxPoint x="14" y="11" as="offset" />
          </mxGeometry>
        </mxCell>
        <mxCell id="ha9AG-WfzSjR4dk0X2PM-1" value="" style="shape=actor;whiteSpace=wrap;html=1;" parent="1" vertex="1">
          <mxGeometry x="50" y="212" width="40" height="60" as="geometry" />
        </mxCell>
        <mxCell id="ha9AG-WfzSjR4dk0X2PM-2" value="&lt;div&gt;Load Balancer&lt;/div&gt;" style="image;sketch=0;aspect=fixed;html=1;points=[];align=center;fontSize=12;image=img/lib/mscae/Load_Balancer_feature.svg;" parent="1" vertex="1">
          <mxGeometry x="220" y="217" width="50" height="50" as="geometry" />
        </mxCell>
        <mxCell id="ha9AG-WfzSjR4dk0X2PM-4" value="Authorization Server" style="shape=image;html=1;verticalAlign=top;verticalLabelPosition=bottom;labelBackgroundColor=#ffffff;imageAspect=0;aspect=fixed;image=https://icons.diagrams.net/icon-cache1/Boxicons_Logos-2642/bxl-spring-boot-1339.svg" parent="1" vertex="1">
          <mxGeometry x="350" y="450" width="64" height="64" as="geometry" />
        </mxCell>
        <mxCell id="ha9AG-WfzSjR4dk0X2PM-5" value="Account Service" style="shape=image;html=1;verticalAlign=top;verticalLabelPosition=bottom;labelBackgroundColor=#ffffff;imageAspect=0;aspect=fixed;image=https://icons.diagrams.net/icon-cache1/Boxicons_Logos-2642/bxl-spring-boot-1339.svg" parent="1" vertex="1">
          <mxGeometry x="490" y="326" width="64" height="64" as="geometry" />
        </mxCell>
        <mxCell id="BQMmLObaJ7vS0pBoSyH7-5" style="edgeStyle=orthogonalEdgeStyle;rounded=0;orthogonalLoop=1;jettySize=auto;html=1;" edge="1" parent="1" source="ha9AG-WfzSjR4dk0X2PM-6" target="BQMmLObaJ7vS0pBoSyH7-1">
          <mxGeometry relative="1" as="geometry" />
        </mxCell>
        <mxCell id="ha9AG-WfzSjR4dk0X2PM-6" value="Student Service" style="shape=image;html=1;verticalAlign=top;verticalLabelPosition=bottom;labelBackgroundColor=#ffffff;imageAspect=0;aspect=fixed;image=https://icons.diagrams.net/icon-cache1/Boxicons_Logos-2642/bxl-spring-boot-1339.svg;imageBackground=default;" parent="1" vertex="1">
          <mxGeometry x="490" y="193" width="64" height="64" as="geometry" />
        </mxCell>
        <mxCell id="BQMmLObaJ7vS0pBoSyH7-1" value="" style="swimlane;startSize=0;" vertex="1" parent="1">
          <mxGeometry x="680" y="150" width="270" height="150" as="geometry" />
        </mxCell>
        <mxCell id="ha9AG-WfzSjR4dk0X2PM-17" value="" style="image;aspect=fixed;html=1;points=[];align=center;fontSize=12;image=img/lib/azure2/databases/Azure_Database_PostgreSQL_Server.svg;" parent="BQMmLObaJ7vS0pBoSyH7-1" vertex="1">
          <mxGeometry x="30" y="70" width="48" height="64" as="geometry" />
        </mxCell>
        <mxCell id="BQMmLObaJ7vS0pBoSyH7-2" value="" style="image;aspect=fixed;html=1;points=[];align=center;fontSize=12;image=img/lib/azure2/databases/Azure_Database_PostgreSQL_Server.svg;" vertex="1" parent="BQMmLObaJ7vS0pBoSyH7-1">
          <mxGeometry x="111" y="70" width="48" height="64" as="geometry" />
        </mxCell>
        <mxCell id="BQMmLObaJ7vS0pBoSyH7-3" value="" style="image;aspect=fixed;html=1;points=[];align=center;fontSize=12;image=img/lib/azure2/databases/Azure_Database_PostgreSQL_Server.svg;" vertex="1" parent="BQMmLObaJ7vS0pBoSyH7-1">
          <mxGeometry x="200" y="70" width="48" height="64" as="geometry" />
        </mxCell>
        <mxCell id="BQMmLObaJ7vS0pBoSyH7-4" value="&lt;b&gt;POSTGRESQL&lt;/b&gt;" style="text;html=1;align=center;verticalAlign=middle;whiteSpace=wrap;rounded=0;" vertex="1" parent="BQMmLObaJ7vS0pBoSyH7-1">
          <mxGeometry x="30" y="20" width="210" height="30" as="geometry" />
        </mxCell>
      </root>
    </mxGraphModel>
  </diagram>
</mxfile>
